<?xml version="1.0"?>
<svg width="511" height="511" xmlns="http://www.w3.org/2000/svg">
 <g>
  <title>background</title>
  <rect x="-1" y="-1" width="513" height="513" id="canvas_background" fill="none"/>
 </g>

 <g>
  <title>Layer 1</title>
  <path id="svg_1" d="m398.414189,364.251356l46.350523,-32.705607l-46.350523,-32.69308l-46.360445,-32.680789l0,36.356899c-12.161212,-0.024498 -32.314996,-0.024498 -38.028189,-0.024498c-16.880774,-0.491966 -27.960246,-6.946732 -39.490085,-18.504409c-17.185172,-17.250258 -31.852016,-48.295905 -49.540407,-78.210143c-8.996319,-14.877075 -19.019138,-29.631542 -32.367806,-41.496295c-13.21527,-11.914255 -30.481016,-20.176678 -49.673749,-20.016809l-83.1888,0l0,58.082867l83.1888,0c11.567484,0.258198 18.888293,4.868789 28.873413,16.303571c14.772561,17.004402 29.175328,49.512929 49.039824,80.312703c19.466897,30.504432 49.422202,61.304155 92.869439,61.599243l38.31756,0l0,36.356798l46.360445,-32.680451zm-196.091238,-219.974714c0.525849,0.455008 1.081905,0.848274 1.595032,1.315708c15.854438,14.090207 27.303593,31.377524 36.365389,46.414603c2.083057,3.516242 3.929663,6.897534 5.907045,10.352556l105.863327,0l0,36.369325l46.360445,-32.680957l46.350523,-32.692894l-46.350523,-32.705388l-46.360445,-32.717763l0,36.344811l-149.730793,0z" stroke-width="0" stroke="#000" fill="#444444"/>
 </g>
</svg>
