<?xml version="1.0" encoding="iso-8859-1"?>
<svg width="60" height="60" xmlns="http://www.w3.org/2000/svg">
 <g>
  <title>background</title>
  <rect x="-1" y="-1" width="62" height="62" id="canvas_background" fill="none"/>
 </g>
 <g>
  <title>Layer 1</title>
  <path stroke="#000" id="svg_1" d="m47.46752,44.973965l5.297205,-3.960884l-5.297205,-3.959366l-5.298339,-3.957878l0,4.403081c-1.389853,-0.002967 -3.693144,-0.002967 -4.34608,-0.002967c-1.929232,-0.059581 -3.195458,-0.841299 -4.513154,-2.241017c-1.96402,-2.08913 -3.640232,-5.848981 -5.661763,-9.471809c-1.028151,-1.801721 -2.173617,-3.588592 -3.699179,-5.025499c-1.510317,-1.442902 -3.483546,-2.44354 -5.677002,-2.424179l-9.507295,0l0,7.034252l9.507295,0c1.321999,0.03127 2.158663,0.589645 3.29982,1.974479c1.688293,2.059355 3.334324,5.996371 5.604553,9.726444c2.224789,3.694306 5.648254,7.424373 10.613654,7.46011l4.379151,0l0,4.403069l5.298339,-3.957837zm-22.410436,-26.640516c0.060097,0.055105 0.123646,0.102732 0.182289,0.159342c1.811936,1.706425 3.120412,3.800043 4.156046,5.621141c0.238064,0.425842 0.449105,0.835341 0.675091,1.253769l12.09867,0l0,4.404586l5.298339,-3.957898l5.297205,-3.959344l-5.297205,-3.960857l-5.298339,-3.962356l0,4.401617l-17.112097,0z" stroke-width="0" fill="#444444"/>
 </g>
</svg>
